# xmcd CD database file
#
# Track frame offsets:
#	150
#	22912
#	46462
#
# Disc length: 914 seconds
#
# Revision: 2
# Processed by: cddbd v1.5.2PL0 Copyright (c) Steve Scherf et al.
# Submitted via: CDex 1.51
#
DISCID=1a039003
DTITLE=レミオロメン - 蛍／ＲＵＮ
DYEAR=2007
DGENRE=JPop
TTITLE0=蛍
TTITLE1=RUN
TTITLE2=幸せのカタチ
EXTD=YEAR: 2007
EXTT0=
EXTT1=
EXTT2=
PLAYORDER=
